<?xml version="1.0" standalone="no"?>
<!DOCTYPE svg PUBLIC "-//W3C//DTD SVG 20010904//EN"
 "http://www.w3.org/TR/2001/REC-SVG-20010904/DTD/svg10.dtd">
<svg version="1.0" xmlns="http://www.w3.org/2000/svg"
 width="1082.000000pt" height="1081.000000pt" viewBox="0 0 1082.000000 1081.000000"
 preserveAspectRatio="xMidYMid meet">

<g transform="translate(0.000000,1081.000000) scale(0.100000,-0.100000)"
fill="#000000" stroke="none">
<path d="M4305 10798 c-101 -11 -275 -57 -386 -102 -200 -80 -396 -191 -759
-426 -336 -218 -439 -276 -875 -490 -706 -348 -932 -487 -1146 -707 -222 -229
-315 -464 -464 -1178 -114 -546 -142 -635 -388 -1210 -242 -567 -297 -784
-283 -1120 10 -259 53 -465 196 -940 157 -518 184 -643 260 -1175 57 -398 79
-525 120 -685 110 -425 340 -705 855 -1040 602 -392 634 -416 1251 -933 761
-638 946 -710 1739 -679 149 6 452 11 675 11 441 1 489 -2 985 -69 529 -71
730 -69 995 11 305 93 524 239 1117 745 341 292 448 368 901 649 347 214 512
333 659 474 195 187 293 339 372 582 53 162 91 352 146 724 70 478 101 608
246 1030 259 750 293 892 293 1205 0 280 -39 469 -179 870 -42 121 -110 316
-151 433 -88 252 -137 450 -199 787 -98 534 -156 710 -306 936 -116 172 -290
336 -609 573 -547 405 -592 443 -1005 847 -165 162 -341 328 -390 370 -298
251 -482 344 -745 379 -61 9 -263 10 -705 5 -781 -9 -901 -3 -1460 75 -419 59
-579 69 -760 48z m1530 -1933 c307 -36 522 -83 815 -178 290 -95 337 -122 376
-212 15 -34 17 -73 17 -265 -2 -622 -122 -1087 -380 -1475 -135 -203 -370
-541 -512 -735 -226 -310 -349 -509 -477 -775 -120 -250 -209 -493 -259 -710
-15 -66 -83 -343 -151 -615 -190 -765 -218 -924 -175 -1008 36 -70 79 -99 220
-152 256 -95 461 -202 548 -286 45 -42 53 -56 53 -86 0 -73 -70 -115 -230
-139 -154 -22 -531 8 -815 66 -267 54 -583 155 -725 232 -208 112 -259 222
-133 286 89 45 341 71 613 61 l185 -6 55 29 c99 51 121 104 185 453 18 102 59
356 90 565 30 209 69 454 85 545 52 295 69 568 51 850 -20 324 -50 501 -161
975 -33 143 -93 418 -132 610 l-72 350 0 205 c0 218 12 334 59 542 69 307 233
748 308 827 63 66 92 73 272 67 88 -4 219 -13 290 -21z m2785 -7336 c-53 -48
-292 -229 -335 -254 -33 -19 -30 -16 76 72 73 61 289 221 299 222 3 0 -15 -18
-40 -40z"/>
</g>
</svg>
